<?xml version="1.0" encoding="UTF-8" standalone="no" ?>
<!DOCTYPE svg PUBLIC "-//W3C//DTD SVG 1.1//EN" "http://www.w3.org/Graphics/SVG/1.1/DTD/svg11.dtd">
<svg xmlns="http://www.w3.org/2000/svg" xmlns:xlink="http://www.w3.org/1999/xlink" version="1.1" width="1280" height="1024" viewBox="0 0 1280 1024" xml:space="preserve">
<desc>Created with Fabric.js 5.3.0</desc>
<defs>
</defs>
<g transform="matrix(1 0 0 1 640 512)" id="background-logo"  >
<rect style="stroke: none; stroke-width: 0; stroke-dasharray: none; stroke-linecap: butt; stroke-dashoffset: 0; stroke-linejoin: miter; stroke-miterlimit: 4; fill: rgb(255,255,255); fill-opacity: 0; fill-rule: nonzero; opacity: 1;"  paint-order="stroke"  x="-640" y="-512" rx="0" ry="0" width="1280" height="1024" />
</g>
<g transform="matrix(1.9211538461538462 0 0 1.9211538461538462 640 405.79935550752316)" id="logo-logo"  >
<g style=""  paint-order="stroke"   >
		<g transform="matrix(0.5250690403802821 0 0 -0.5250690403802821 0 0)"  >
<path style="stroke: none; stroke-width: 1; stroke-dasharray: none; stroke-linecap: butt; stroke-dashoffset: 0; stroke-linejoin: miter; stroke-miterlimit: 10; fill: rgb(255,255,255); fill-rule: nonzero; opacity: 1;"  paint-order="stroke"  transform=" translate(-426.592, -1953.9250000000002)" d="M 519.898 1951.91 L 535.793 1967.8000000000002 C 548.5550000000001 1980.5100000000002 555.582 1997.4600000000003 555.582 2015.4900000000002 C 555.582 2033.5000000000002 548.555 2050.44 535.793 2063.1600000000003 C 523.074 2075.9200000000005 506.137 2082.9100000000003 488.125 2082.9100000000003 C 470.133 2082.9100000000003 453.188 2075.9200000000005 440.426 2063.1600000000003 C 435.75399999999996 2058.4400000000005 431.77 2053.09 428.637 2047.2300000000002 L 412.711 2063.1600000000003 C 399.961 2075.9200000000005 383.047 2082.9100000000003 365.016 2082.9100000000003 C 347.016 2082.9100000000003 330.063 2075.9200000000005 317.348 2063.1600000000003 C 304.63300000000004 2050.4400000000005 297.60200000000003 2033.5000000000002 297.60200000000003 2015.4900000000002 C 297.60200000000003 1997.4600000000003 304.63300000000004 1980.5100000000002 317.348 1967.8000000000002 C 322.10200000000003 1963.0500000000002 327.473 1959.0600000000002 333.242 1955.9700000000003 L 317.348 1940.0800000000002 C 304.63300000000004 1927.3700000000001 297.60200000000003 1910.42 297.60200000000003 1892.38 C 297.60200000000003 1874.3400000000001 304.63300000000004 1857.44 317.348 1844.73 C 330.063 1831.96 347.016 1824.94 365.016 1824.94 C 383.047 1824.94 399.99600000000004 1831.96 412.711 1844.73 C 417.438 1849.39 421.406 1854.79 424.535 1860.6100000000001 L 440.42600000000004 1844.73 C 453.18800000000005 1831.96 470.13300000000004 1824.94 488.12500000000006 1824.94 C 506.13700000000006 1824.94 523.0740000000001 1831.96 535.8240000000001 1844.73 C 562.113 1871.01 562.113 1913.79 535.8240000000001 1940.08 C 531.0310000000001 1944.84 525.6680000000001 1948.82 519.898 1951.9099999999999 M 451.918 2051.66 C 461.60200000000003 2061.33 474.473 2066.6499999999996 488.125 2066.6499999999996 C 501.781 2066.6499999999996 514.664 2061.3299999999995 524.336 2051.66 C 534.004 2041.9899999999998 539.32 2029.1499999999999 539.32 2015.4899999999998 C 539.32 2001.7999999999997 534.004 1988.9599999999998 524.336 1979.2999999999997 L 503.125 1958.0899999999997 C 498.246 1959.1699999999996 493.242 1959.8399999999997 488.125 1959.8399999999997 C 486.379 1959.8399999999997 484.629 1959.6999999999996 482.93 1959.5999999999997 L 513.484 1990.1299999999997 C 520.27 1996.8899999999996 523.965 2005.9099999999996 523.965 2015.4899999999996 C 523.965 2025.0399999999995 520.27 2034.0599999999995 513.484 2040.8599999999994 C 506.69500000000005 2047.5899999999995 497.71500000000003 2051.3399999999992 488.12500000000006 2051.3399999999992 C 478.53900000000004 2051.3399999999992 469.56300000000005 2047.5899999999992 462.77000000000004 2040.8599999999992 C 457.65200000000004 2035.7399999999993 454.45300000000003 2029.4299999999992 453.06300000000005 2022.8099999999993 L 440.879 2035.0099999999993 C 443.43800000000005 2041.1799999999994 447.172 2046.9099999999994 451.918 2051.6599999999994 M 474.27 2001.5999999999995 C 466.633 2009.2799999999995 466.633 2021.7099999999994 474.27 2029.3599999999994 C 477.969 2033.0599999999995 482.89099999999996 2035.0699999999995 488.125 2035.0699999999995 C 493.375 2035.0699999999995 498.285 2033.0599999999995 501.984 2029.3599999999994 C 505.68399999999997 2025.6599999999994 507.703 2020.6999999999994 507.703 2015.4899999999996 C 507.703 2010.2599999999995 505.68399999999997 2005.3399999999995 501.984 2001.5999999999995 L 486.055 1985.7099999999994 C 482.93 1991.5199999999993 478.988 1996.9299999999994 474.27 2001.5999999999995 M 328.852 1979.2999999999995 C 319.17999999999995 1988.9299999999996 313.852 2001.7999999999995 313.852 2015.4899999999996 C 313.852 2029.1899999999996 319.17999999999995 2042.0299999999995 328.852 2051.6599999999994 C 338.52 2061.3299999999995 351.359 2066.649999999999 365.01599999999996 2066.649999999999 C 378.70699999999994 2066.649999999999 391.539 2061.329999999999 401.21099999999996 2051.6599999999994 L 462.74199999999996 1990.1299999999994 L 462.77 1990.1299999999994 C 468.668 1984.2499999999993 473.05899999999997 1976.9299999999994 475.49199999999996 1969.0199999999995 L 478.539 1959.0599999999995 C 472.973 1958.2999999999995 467.52299999999997 1956.8699999999994 462.363 1954.7499999999995 C 462.156 1963.6399999999996 458.711 1972.5099999999995 451.918 1979.2999999999995 C 445.188 1986.0799999999995 436.156 1989.7799999999995 426.56600000000003 1989.7799999999995 C 416.98400000000004 1989.7799999999995 408.004 1986.0799999999995 401.211 1979.2999999999995 C 391.539 1969.6299999999994 378.707 1964.3099999999995 365.016 1964.3099999999995 C 351.35900000000004 1964.3099999999995 338.52000000000004 1969.6299999999994 328.85200000000003 1979.2999999999995 M 446.148 1953.9399999999996 C 446.148 1948.9399999999996 444.242 1943.8999999999996 440.42600000000004 1940.0799999999997 C 436.73 1936.3799999999997 431.80100000000004 1934.2999999999997 426.56600000000003 1934.2999999999997 C 421.324 1934.2999999999997 416.41 1936.3799999999997 412.711 1940.0799999999997 C 405.074 1947.7299999999998 405.074 1960.1599999999996 412.711 1967.7999999999997 C 416.41 1971.4899999999998 421.324 1973.5199999999998 426.56600000000003 1973.5199999999998 C 431.80100000000004 1973.5199999999998 436.73 1971.4899999999998 440.42600000000004 1967.7999999999997 C 444.242 1963.9799999999998 446.148 1958.9499999999998 446.148 1953.9399999999998 M 401.211 1856.1799999999998 C 391.539 1846.5199999999998 378.707 1841.1899999999998 365.016 1841.1899999999998 C 351.35900000000004 1841.1899999999998 338.52000000000004 1846.5499999999997 328.85200000000003 1856.1799999999998 C 319.18 1865.85 313.85200000000003 1878.6899999999998 313.85200000000003 1892.3799999999999 C 313.85200000000003 1906.08 319.18 1918.9099999999999 328.85200000000003 1928.58 L 350.016 1949.75 C 354.90200000000004 1948.66 359.934 1948.04 365.016 1948.04 C 366.762 1948.04 368.512 1948.17 370.211 1948.3 L 339.664 1917.74 C 325.676 1903.76 325.676 1881 339.664 1867.02 C 346.445 1860.29 355.461 1856.55 365.01599999999996 1856.55 C 374.602 1856.55 383.61699999999996 1860.29 390.40999999999997 1867.02 C 395.40599999999995 1872.02 398.69899999999996 1878.24 400.11299999999994 1885.03 L 412.30899999999997 1872.84 C 409.74999999999994 1866.6599999999999 405.99999999999994 1860.98 401.21099999999996 1856.1799999999998 M 378.90599999999995 1906.2299999999998 C 382.6089999999999 1902.5399999999997 384.62899999999996 1897.6299999999999 384.62899999999996 1892.3799999999999 C 384.62899999999996 1887.1299999999999 382.609 1882.2199999999998 378.90599999999995 1878.54 C 375.203 1874.83 370.2579999999999 1872.8 365.01599999999996 1872.8 C 359.816 1872.8 354.85499999999996 1874.83 351.15599999999995 1878.54 C 343.5199999999999 1886.17 343.5199999999999 1898.59 351.15599999999995 1906.23 L 367.078 1922.17 C 370.21099999999996 1916.3100000000002 374.195 1910.95 378.90599999999995 1906.23 M 524.336 1856.18 C 514.664 1846.52 501.781 1841.19 488.125 1841.19 C 474.473 1841.19 461.602 1846.52 451.918 1856.18 L 390.35900000000004 1917.74 C 384.473 1923.63 380.08200000000005 1930.93 377.68000000000006 1938.8700000000001 L 374.63300000000004 1948.7800000000002 C 380.21500000000003 1949.5900000000001 385.61300000000006 1951.0200000000002 390.766 1953.13 C 390.98 1944.22 394.43 1935.3700000000001 401.211 1928.5800000000002 C 408.004 1921.8000000000002 417.016 1918.0600000000002 426.56600000000003 1918.0600000000002 C 436.156 1918.0600000000002 445.18800000000005 1921.8000000000002 451.918 1928.5800000000002 C 461.60200000000003 1938.2600000000002 474.473 1943.5700000000002 488.125 1943.5700000000002 C 501.781 1943.5700000000002 514.664 1938.2600000000002 524.336 1928.5800000000002 C 544.2810000000001 1908.64 544.2810000000001 1876.17 524.336 1856.18" stroke-linecap="round" />
</g>
		<g transform="matrix(0.5250690403802821 0 0 -0.5250690403802821 26.177668858546895 32.35399643662828)"  >
<path style="stroke: none; stroke-width: 1; stroke-dasharray: none; stroke-linecap: butt; stroke-dashoffset: 0; stroke-linejoin: miter; stroke-miterlimit: 10; fill: rgb(255,255,255); fill-rule: nonzero; opacity: 1;"  paint-order="stroke"  transform=" translate(-476.36587499999996, -1892.405)" d="M 488.125 1928.26 C 478.539 1928.26 469.563 1924.52 462.77 1917.74 C 456.84 1911.85 449.563 1907.42 441.691 1904.98 L 428.762 1901.04 L 462.77 1867.02 C 469.563 1860.25 478.539 1856.55 488.125 1856.55 C 497.715 1856.55 506.695 1860.25 513.484 1867.02 C 527.465 1881 527.465 1903.76 513.484 1917.74 C 506.69500000000005 1924.52 497.71500000000003 1928.26 488.12500000000006 1928.26 z M 501.984 1878.54 C 498.28499999999997 1874.83 493.375 1872.8 488.125 1872.8 C 482.891 1872.8 477.969 1874.83 474.27 1878.54 L 458.34 1894.4099999999999 C 464.195 1897.55 469.563 1901.5299999999997 474.27 1906.2299999999998 C 477.969 1909.9299999999998 482.89099999999996 1911.9999999999998 488.125 1911.9999999999998 C 493.375 1911.9999999999998 498.285 1909.9299999999998 501.984 1906.2299999999998 C 509.61699999999996 1898.5899999999997 509.61699999999996 1886.1699999999998 501.984 1878.5399999999997" stroke-linecap="round" />
</g>
		<g transform="matrix(0.5250690403802821 0 0 -0.5250690403802821 -26.199321190108947 -32.3702356853)"  >
<path style="stroke: none; stroke-width: 1; stroke-dasharray: none; stroke-linecap: butt; stroke-dashoffset: 0; stroke-linejoin: miter; stroke-miterlimit: 10; fill: rgb(255,255,255); fill-rule: nonzero; opacity: 1;"  paint-order="stroke"  transform=" translate(-376.7735, -2015.4800000000002)" d="M 390.359 1990.13 C 396.293 1996.0400000000002 403.613 2000.47 411.44899999999996 2002.8500000000001 L 424.371 2006.8500000000001 L 390.359 2040.8600000000001 C 383.61699999999996 2047.5900000000001 374.602 2051.34 365.01599999999996 2051.34 C 355.46099999999996 2051.34 346.44499999999994 2047.5900000000001 339.664 2040.8600000000001 C 332.92199999999997 2034.0600000000002 329.176 2025.0800000000002 329.176 2015.4900000000002 C 329.176 2005.9100000000003 332.92199999999997 1996.8900000000003 339.703 1990.1300000000003 C 346.445 1983.3600000000004 355.46099999999996 1979.6200000000003 365.01599999999996 1979.6200000000003 C 374.602 1979.6200000000003 383.61699999999996 1983.3600000000004 390.359 1990.1300000000003 z M 345.42199999999997 2015.49 C 345.42199999999997 2020.73 347.465 2025.66 351.15599999999995 2029.36 C 354.85499999999996 2033.06 359.816 2035.07 365.01599999999996 2035.07 C 370.258 2035.07 375.203 2033.06 378.90599999999995 2029.36 L 394.80099999999993 2013.4199999999998 C 388.9799999999999 2010.3 383.6169999999999 2006.31 378.90599999999995 2001.6399999999999 C 375.17199999999997 1997.8999999999999 370.2579999999999 1995.87 365.01599999999996 1995.87 C 359.816 1995.87 354.902 1997.8999999999999 351.15599999999995 2001.6 C 347.465 2005.3 345.42199999999997 2010.26 345.42199999999997 2015.49" stroke-linecap="round" />
</g>
</g>
</g>
<g transform="matrix(1.9211538461538462 0 0 1.9211538461538462 640.1998000000001 624.0903487205342)" id="text-logo"  >
<g style=""  paint-order="stroke"   >
		<g transform="matrix(1 0 0 1 0 0)" id="text-logo-path-0"  >
<path style="stroke: none; stroke-width: 0.5584430662775732; stroke-dasharray: none; stroke-linecap: butt; stroke-dashoffset: 0; stroke-linejoin: miter; stroke-miterlimit: 4; fill: rgb(255,255,255); fill-rule: nonzero; opacity: 1;"  paint-order="stroke"  transform=" translate(-198.355, 17.419999999999998)" d="M 15.7 -7.28 L 10.92 -7.28 L 10.92 -27.56 L 15.7 -27.56 C 21.11 -27.56 25.38 -23.09 25.38 -17.42 C 25.38 -11.8 21.11 -7.28 15.7 -7.28 Z M 16.22 -34.84 L 2.6 -34.84 L 2.6 0 L 16.22 0 C 22.62 0 28.24 -3.38 31.36 -8.74 C 32.92 -11.39 33.7 -14.3 33.7 -17.42 C 33.7 -23.66 30.42 -29.33 25.06 -32.5 C 22.41 -34.06 19.45 -34.84 16.22 -34.84 Z M 60.32 0.57 C 66.98 0.57 72.85 -2.96 76.02 -8.48 C 77.64 -11.23 78.42 -14.2 78.42 -17.42 C 78.42 -23.87 74.98 -29.69 69.42 -32.97 C 66.66 -34.58 63.6 -35.41 60.32 -35.41 C 53.66 -35.41 47.79 -31.93 44.62 -26.42 C 43 -23.66 42.22 -20.64 42.22 -17.42 C 42.22 -10.97 45.66 -5.15 51.22 -1.87 C 53.98 -0.26 57.04 0.57 60.32 0.57 Z M 50.8 -17.42 C 50.8 -22.78 55.07 -27.04 60.32 -27.04 C 65.62 -27.04 69.84 -22.78 69.84 -17.42 C 69.84 -12.06 65.57 -7.8 60.32 -7.8 C 55.02 -7.8 50.8 -12.06 50.8 -17.42 Z M 120.28 -7.64 L 112.84 -11.96 C 111.18 -9.46 108.37 -7.8 105.04 -7.8 C 99.74 -7.8 95.52 -12.06 95.52 -17.42 C 95.52 -22.78 99.79 -27.04 105.04 -27.04 C 108.37 -27.04 111.44 -25.27 113.15 -22.52 L 120.48 -26.78 C 117.21 -32.03 111.49 -35.41 105.04 -35.41 C 98.38 -35.41 92.51 -31.93 89.34 -26.42 C 87.72 -23.66 86.94 -20.64 86.94 -17.42 C 86.94 -10.97 90.38 -5.15 95.94 -1.87 C 98.7 -0.26 101.76 0.57 105.04 0.57 C 111.33 0.57 116.95 -2.65 120.28 -7.64 Z M 145.5 -35.36 C 137.44 -35.36 131.92 -31.15 131.92 -24.54 C 131.92 -19.29 134.99 -15.96 141.13 -14.61 L 148.3 -13.05 C 150.59 -12.58 151.74 -11.75 151.74 -10.56 C 151.74 -8.74 149.97 -7.8 146.43 -7.8 C 143.57 -7.8 140.66 -9.46 139.67 -12.12 L 131.09 -9.1 C 132.55 -2.86 138.48 0.52 145.96 0.52 C 150.8 0.52 155.38 -1.04 158.08 -4.42 C 159.43 -6.08 160.11 -8.16 160.11 -10.61 C 160.11 -15.86 156.99 -19.19 150.7 -20.59 L 143.57 -22.2 C 141.75 -22.62 140.5 -23.45 140.5 -24.54 C 140.5 -26.36 142.64 -27.04 145.39 -27.04 C 148.77 -27.04 150.96 -26.21 151.42 -23.35 L 159.43 -26.47 C 157.72 -32.29 152.36 -35.36 145.5 -35.36 Z M 179.04 0 L 179.04 -16.54 L 185.85 0 L 194.95 0 L 201.81 -16.64 L 201.81 0 L 210.13 0 L 210.13 -34.84 L 200.25 -34.84 L 190.42 -10.92 L 180.54 -34.84 L 170.72 -34.84 L 170.72 0 Z M 229.06 0 L 229.06 -34.84 L 220.74 -34.84 L 220.74 0 Z M 247.99 0 L 247.99 -21.53 L 260.68 0 L 270.87 0 L 270.87 -34.84 L 262.55 -34.84 L 262.55 -13.21 L 249.81 -34.84 L 239.67 -34.84 L 239.67 0 Z M 294.58 -7.28 L 289.8 -7.28 L 289.8 -27.56 L 294.58 -27.56 C 299.99 -27.56 304.25 -23.09 304.25 -17.42 C 304.25 -11.8 299.99 -7.28 294.58 -7.28 Z M 295.1 -34.84 L 281.48 -34.84 L 281.48 0 L 295.1 0 C 301.5 0 307.11 -3.38 310.23 -8.74 C 311.79 -11.39 312.57 -14.3 312.57 -17.42 C 312.57 -23.66 309.3 -29.33 303.94 -32.5 C 301.29 -34.06 298.32 -34.84 295.1 -34.84 Z M 348.14 0 L 350.74 -6.76 L 363.43 -6.76 L 366.03 0 L 375.18 0 L 361.66 -34.84 L 352.51 -34.84 L 338.99 0 Z M 353.6 -14.04 L 357.08 -23.04 L 360.57 -14.04 Z M 394.11 0 L 394.11 -34.84 L 385.79 -34.84 L 385.79 0 Z" stroke-linecap="round" />
</g>
</g>
</g>
</svg>